<?xml version="1.0" encoding="UTF-8"?>
<svg width="115px" height="70px" viewBox="0 0 115 70" version="1.1" xmlns="http://www.w3.org/2000/svg" xmlns:xlink="http://www.w3.org/1999/xlink">
    <title>Combined Shape</title>
    <g id="Site" stroke="none" stroke-width="1" fill="none" fill-rule="evenodd" opacity="0.4">
        <g id="mocks/Homepage-Alt-Pink" transform="translate(-1172.000000, -519.000000)" fill="#000000" fill-rule="nonzero">
            <g id="Group" transform="translate(1144.000000, 464.000000)">
                <path d="M35.6882,102.333 C36.5761,102.2069 37.3977,102.8231 37.5238,103.7097 C37.5264,103.7344 37.5173,103.7539 37.5199,103.7786 L37.5199,103.7786 L37.5407,103.7773 C37.5407,103.780767 37.5655444,104.223344 37.5975148,104.691344 L37.6174104,104.971886 C37.627644,105.110372 37.6382,105.2437 37.6486,105.3607 C37.9268,108.5119 41.6617,109.9848 44.7466,110.6647 C47.2634,111.2198 49.7711,111.8087 52.2788,112.3976 C56.0033,113.2712 59.8539,114.176 63.659,114.943 C71.7021,116.5641 80.2015,118.0214 89.6434,119.3994 L89.6434,119.3994 L91.869,119.7283 C99.2764,120.8255 106.9334,121.9617 114.3837,121.1648 C119.0468,120.6669 122.9858,118.8469 126.7792,115.4357 C128.9372,113.4961 130.3893,110.2916 130.4816,107.2717 C130.5089,106.3747 131.2564,105.609 132.1547,105.6974 C133.053,105.7247 133.7576,106.4735 133.728617,107.3705 C133.6081,111.2926 131.779,115.3083 128.9515,117.8524 C124.6836,121.6887 120.0309,123.8285 114.7282,124.3966 C112.8549,124.5981 110.979,124.6839 109.1083,124.6839 C103.1309,124.6839 97.186,123.8012 91.3906,122.9419 L91.3906,122.9419 L89.1728,122.6156 C79.6724,121.2298 71.1171,119.7621 63.0155,118.1293 C59.1597,117.3506 55.2831,116.4406 51.5339,115.5605 C49.0405,114.9755 46.5471,114.3892 44.0446,113.838 C38.1829,112.5445 34.7613,109.6351 34.409,105.6441 C34.3987625,105.526856 34.3883422,105.394348 34.3781675,105.25642 L34.3582727,104.976258 C34.3228648,104.460079 34.2946,103.9593 34.2946,103.9593 C34.1685,103.0714 34.8003,102.4591 35.6882,102.333 Z M136.8594,93.5879 C137.1766,92.7481 138.1178,92.3269 138.9563,92.6415 C140.7373,93.3136 141.8241,95.6289 142.0256,97.0602 C142.2921,98.9517 141.4458,100.9017 139.7012,102.4149 C138.4376,103.5121 136.8477,104.1478 135.1018,104.2531 C134.4297,104.2895 133.7901,104.2193 133.1726,104.1465 C132.4901,104.0659 131.8466,103.9879 131.4007,104.1179 C131.0354,104.2206 130.7559,104.751 130.3698,105.544 C130.2437,105.8014 130.1215,106.0549 129.9889,106.2941 C128.8202,108.4248 126.852,109.6689 124.7681,109.5961 C124.0401,109.5623 123.3719,109.3621 122.783,109.184 C121.8808,108.9136 121.4518,108.8161 121.1242,108.9929 C120.911,109.1073 120.6692,109.5324 120.4339,109.9406 C120.105,110.5165 119.7319,111.1678 119.1001,111.7021 C116.9486,113.5182 113.6258,113.5663 111.1987,111.8217 C110.732,111.4876 110.3381,111.1262 109.9572,110.7752 C109.2071,110.0901 108.7157,109.6637 108.0917,109.5779 C106.9451,109.4271 105.61,110.3644 104.7039,111.1899 C104.1046,111.7359 102.5069,113.1893 100.3749,113.1893 C99.8978,113.1893 99.3934,113.1165 98.8669,112.9436 C97.1626,112.3859 95.5532,110.9403 94.56,109.0774 C94.1388,108.2857 94.4391,107.3016 95.2308,106.8791 C96.0251,106.4566 97.0066,106.7582 97.4291,107.5499 C98.018,108.6562 98.9813,109.5597 99.8796,109.8561 C100.4399,110.0355 101.1432,110.0368 102.5173,108.7875 C104.5778,106.9103 106.6006,106.09 108.5376,106.3591 C110.1977,106.5879 111.2819,107.5824 112.1542,108.3806 L112.382452,108.589839 C112.611394,108.798062 112.844175,109.00135 113.0967,109.1827 C114.2927,110.0433 116.0074,110.0576 117.0058,109.2191 C117.1995,109.0553 117.4023,108.7004 117.6168,108.3247 C118.0354,107.5954 118.5541,106.688 119.5798,106.1329 C121.1333,105.2918 122.6296,105.7416 123.7229,106.0705 C124.1714,106.2057 124.5952,106.3318 124.9228,106.3474 C125.916,106.402 126.6999,105.5401 127.1445,104.7302 C127.2498,104.5378 127.3486,104.3311 127.45,104.1231 C127.9869,103.0168 128.724,101.4997 130.5193,100.9901 C131.5905,100.6872 132.6357,100.8094 133.5561,100.9173 C134.054,100.9758 134.5181,101.0343 134.9081,101.007 C135.9507,100.9446 136.8464,100.591 137.5757,99.9592 C137.9059,99.6719 138.968,98.6501 138.8081,97.5139 C138.7132,96.8405 138.1191,95.8304 137.8032,95.6809 C136.9634,95.3637 136.5422,94.4277 136.8594,93.5879 Z M72.5679,94.8489 C73.214,94.2262 74.2436,94.247 74.8663,94.8983 C76.9333,97.0563 85.4639,103.8267 88.2719,106.0406 L88.2719,106.0406 L100.6895,98.1951 C101.4513,97.718 102.4523,97.9416 102.9307,98.6995 C103.4104,99.4587 103.1829,100.4636 102.425,100.942 L102.425,100.942 L88.0678,110.0134 L87.1669,109.3075 C86.9891545,109.168518 85.3516273,107.88588 83.2129622,106.177569 L82.6684103,105.742038 C81.7452725,105.002759 80.7490009,104.199965 79.7489418,103.385595 L79.1490066,102.895999 L79.1490066,102.895999 L78.551491,102.406117 C75.9723075,100.286281 73.5550333,98.2286242 72.5185,97.146 C71.8971,96.4986 71.9192,95.469 72.5679,94.8489 Z M31.5152,88.1162 C32.3394,87.7574 33.2962,88.1305 33.6563,88.9534 C34.0164,89.7737 33.642,90.7331 32.8204,91.0932 C32.0638,91.4234 31.4268,92.4023 31.6023,92.9626 C31.6842,93.2226 31.7804,93.3396 33.2351,93.3851 C33.7148,93.3994 34.188,93.4189 34.6183,93.4852 C36.3096,93.7465 37.7552,94.7748 38.4858,96.236 C38.764,96.7937 38.8797,97.3319 38.9824,97.8077 C39.0539,98.1418 39.1215,98.4564 39.2255,98.6397 C39.6155,99.3235 40.7439,99.304 41.4199,99.0713 C41.8892,98.9088 42.3832,98.6384 42.9058,98.3511 C44.0615,97.718 45.3706,97.0069 47.0606,97.0758 C49.671,97.1954 50.828,99.5601 51.3831,100.6976 C52.2645,102.502 53.1121,102.3967 56.0787,101.1955 C56.7989,100.903 57.5425,100.6027 58.2978,100.3869 C60.1685,99.8513 61.9677,100.1503 63.2339,101.2072 C63.997,101.8429 64.3857,102.6697 64.6977,103.334 C64.972,103.919 65.1566,104.283 65.3867,104.3935 C65.9444,104.6626 66.948,104.5261 67.7722,104.0724 C68.2129,103.8319 68.6471,103.5082 69.106,103.1637 C69.6637,102.7464 70.2422,102.3135 70.926,101.9521 C72.5861,101.072 74.5114,100.9368 76.3522,101.566 C77.1998,101.8572 77.6535,102.7815 77.3623,103.6304 C77.0711,104.4793 76.1481,104.9304 75.2979,104.6405 C74.3034,104.2986 73.3167,104.3649 72.447,104.8251 C71.9842,105.0695 71.5305,105.4088 71.0508,105.7676 C70.523,106.1628 69.9757,106.571 69.3361,106.922 C68.4612,107.403 67.2912,107.7839 66.0926,107.7839 C65.3802,107.7839 64.6574,107.6487 63.9801,107.3237 C62.6892,106.7036 62.1484,105.5544 61.7545,104.7146 C61.553,104.2843 61.3619,103.8787 61.1526,103.7045 C60.5286,103.1832 59.4912,103.425 59.1896,103.5134 C58.6007,103.6811 57.9689,103.9372 57.2981,104.2076 C54.8567,105.1969 50.7721,106.8518 48.4633,102.125 C47.8406,100.8497 47.4064,100.3453 46.9137,100.3232 C46.1129,100.2868 45.3641,100.7119 44.4684,101.202 C43.8496,101.5413 43.21,101.8936 42.4781,102.1445 C40.3994,102.8595 37.6473,102.437 36.4019,100.2478 C36.0509,99.629 35.9157,98.9985 35.8065,98.4915 C35.7389,98.1769 35.6752,97.8792 35.5803,97.6894 C35.3203,97.1694 34.7756,96.7989 34.1204,96.6988 C33.8123,96.6507 33.4756,96.6455 33.1337,96.6338 C31.7973,96.5935 29.3065,96.5155 28.4992,93.9337 C27.7608,91.5677 29.4625,89.0158 31.5152,88.1162 Z M135.441398,88.3154997 L135.5893,88.3242 C136.4811,88.423 137.1246,89.2251 137.0258,90.1182 C136.602,93.974 133.6276,96.2698 130.4764,98.1769 C127.866,99.7577 124.7447,101.5348 121.4011,102.7477 C118.5814,103.7721 115.7409,104.3324 112.9576,104.4143 C112.565,104.4273 112.1841,104.4325 111.811,104.4325 C110.0755,104.4325 108.522,104.3168 106.8944,104.1959 C106.1352,104.14 105.3552,104.0828 104.5258,104.0347 C103.6301,103.9827 102.945,103.2144 102.997,102.3187 C103.049,101.423 103.8251,100.7587 104.713,100.7899 C105.5593,100.8393 106.3562,100.8978 107.1336,100.955 C109.0264,101.0967 110.8139,101.2267 112.8614,101.1669 C115.2976,101.0941 117.7975,100.5988 120.2922,99.6927 C123.3719,98.5747 126.3177,96.8938 128.7929,95.3962 C131.6113,93.6906 133.5418,92.0799 133.7966,89.762 C133.8941,88.8702 134.6962,88.2319 135.5893,88.3242 Z M36.5111,85.6462 C37.4068,85.5877 38.1829,86.2572 38.2466,87.1529 C38.3519,88.6297 41.3445,92.4387 66.8167,95.8941 C67.6175,96.002 68.248,96.0878 68.6627,96.1502 C69.5493,96.2867 70.1577,97.1161 70.0212,98.004 C69.8977,98.8074 69.2048,99.382 68.417,99.382 C68.3351,99.382 68.2506,99.3755 68.1674,99.3625 C67.7657,99.3014 67.156,99.2182 66.3799,99.1129 C44.7635,96.1827 35.3801,92.6727 35.0044,87.383 C34.9407,86.4873 35.6167,85.7099 36.5111,85.6462 Z M69.6884,55.5122 C73.1022,55.5122 76.8384,55.7254 81.4456,56.1817 C83.5308,56.3884 85.6134,56.6211 87.696,56.8551 L87.696,56.8551 L89.8891,57.0995 C99.7522,58.1889 109.0472,60.2234 116.8368,62.0707 C124.5913,63.9115 136.2029,66.6649 138.2582,76.2355 C139.631,82.6172 133.6289,87.2296 129.6561,90.282 L129.6561,90.282 L129.5014,90.4016 C125.2803,93.6464 120.5691,96.7352 114.7308,97.3579 C112.9472,97.549 111.0544,97.6465 109.1018,97.6465 C103.1387,97.6465 97.1678,96.7599 91.3945,95.9032 L91.3945,95.9032 L89.1754,95.5769 C79.675,94.1911 71.1197,92.7234 63.0181,91.0906 C59.1649,90.3132 55.2909,89.4032 51.5456,88.5231 C49.0496,87.9368 46.5523,87.3518 44.0472,86.7993 C38.478,85.5734 35.0616,82.7043 34.4246,78.7172 C33.343,71.9364 39.0994,66.1501 41.624,63.9765 C44.6842,61.344 48.3385,59.3199 52.4855,57.9614 C57.5191,56.313 63.1455,55.5122 69.6884,55.5122 Z M69.6884,58.7648 C63.4939,58.7648 58.1977,59.5136 53.4969,61.0528 C49.7581,62.2774 46.4782,64.0896 43.7443,66.4426 C42.0972,67.8609 36.788,72.901 37.6343,78.2089 C38.1621,81.507 41.793,82.9747 44.7466,83.626 C47.266,84.1811 49.7763,84.7713 52.2879,85.3602 C56.0085,86.2351 59.8565,87.1373 63.659,87.9043 C71.7021,89.5254 80.2015,90.9827 89.6434,92.3607 L89.6434,92.3607 L91.869,92.6896 C97.5279,93.5281 103.3779,94.3965 109.1005,94.3965 C110.9374,94.3965 112.7145,94.3055 114.3837,94.1261 C119.4212,93.5879 123.6748,90.7786 127.5189,87.825 L127.5189,87.825 L127.6749,87.7054 C131.1966,84.9988 136.0196,81.2925 135.0797,76.9193 C133.4547,69.3533 123.0443,66.8846 116.1556,65.2505 C108.392,63.4097 99.2192,61.4012 89.5303,60.3313 L89.5303,60.3313 L87.3346,60.0869 C85.2663,59.8542 83.1967,59.6228 81.1258,59.4187 C76.6265,58.9728 72.993,58.7648 69.6884,58.7648 Z" id="Combined-Shape"></path>
            </g>
        </g>
    </g>
</svg>