<svg width="775px" height="289px" viewBox="0 0 775 289" version="1.1" xmlns="http://www.w3.org/2000/svg" xmlns:xlink="http://www.w3.org/1999/xlink">
    <g class="bg-wiggle__svg" stroke="none" fill="none" fill-rule="evenodd">
        <g transform="translate(0.000000, -136.000000)">
            <path d="M-665.920489,153.306491 C-653.920489,164.812432 -641.920489,170.565402 -629.920489,170.565402 C-617.920489,170.565402 -605.920489,164.812432 -593.920489,153.306491 C-581.920489,141.80055 -569.920489,136.04758 -557.920489,136.04758 C-545.920489,136.04758 -533.920489,141.80055 -521.920489,153.306491 C-509.920489,164.812432 -497.920489,170.565402 -485.920489,170.565402 C-473.920489,170.565402 -461.920489,164.812432 -449.920489,153.306491 C-437.920489,141.80055 -425.920489,136.04758 -413.920489,136.04758 C-401.920489,136.04758 -389.920489,141.80055 -377.920489,153.306491 C-365.920489,164.812432 -353.920489,170.565402 -341.920489,170.565402 C-329.920489,170.565402 -317.920489,164.812432 -305.920489,153.306491 C-293.920489,141.80055 -281.920489,136.04758 -269.920489,136.04758 C-257.920489,136.04758 -245.920489,141.80055 -233.920489,153.306491 C-221.920489,164.812432 -209.920489,170.565402 -197.920489,170.565402 C-185.920489,170.565402 -173.920489,164.812432 -161.920489,153.306491 C-149.920489,141.80055 -137.920489,136.04758 -125.920489,136.04758 C-113.920489,136.04758 -101.920489,141.80055 -89.9204888,153.306491 C-77.9204888,164.812432 -65.9204888,170.565402 -53.9204888,170.565402 C-41.9204888,170.565402 -29.9204888,164.812432 -17.9204888,153.306491 C-5.92048878,141.80055 6.07951122,136.04758 18.0795112,136.04758 C30.0795112,136.04758 42.0795112,141.80055 54.0795112,153.306491 C66.0795112,164.812432 78.0795112,170.565402 90.0795112,170.565402 C102.079511,170.565402 114.079511,164.812432 126.079511,153.306491 C138.079511,141.80055 150.079511,136.04758 162.079511,136.04758 C174.079511,136.04758 186.079511,141.80055 198.079511,153.306491 C210.079511,164.812432 222.079511,170.565402 234.079511,170.565402 C246.079511,170.565402 258.079511,164.812432 270.079511,153.306491 C282.079511,141.80055 294.079511,136.04758 306.079511,136.04758 C318.079511,136.04758 330.079511,141.80055 342.079511,153.306491 C354.079511,164.812432 366.079511,170.565402 378.079511,170.565402 C390.079511,170.565402 402.079511,164.812432 414.079511,153.306491 C426.079511,141.80055 438.079511,136.04758 450.079511,136.04758 C462.079511,136.04758 474.079511,141.80055 486.079511,153.306491 C498.079511,164.812432 510.079511,170.565402 522.079511,170.565402 C534.079511,170.565402 546.079511,164.812432 558.079511,153.306491 C570.079511,141.80055 582.079511,136.04758 594.079511,136.04758 C606.079511,136.04758 618.079511,141.80055 630.079511,153.306491 C642.079511,164.812432 654.079511,170.565402 666.079511,170.565402 C678.079511,170.565402 690.079511,164.812432 702.079511,153.306491 C714.079511,141.80055 726.079511,136.04758 738.079511,136.04758 C750.079511,136.04758 762.079511,141.80055 774.079511,153.306491 L774.079511,424.524231 L-665.529677,423.565402 L-665.920489,153.306491 Z" id="Path-5-Copy"></path>
        </g>
    </g>
</svg>
