<svg xmlns="http://www.w3.org/2000/svg" xmlns:xlink="http://www.w3.org/1999/xlink" height="300px" width="300px" fill="#000000" xml:space="preserve" version="1.1" style="shape-rendering:geometricPrecision;text-rendering:geometricPrecision;image-rendering:optimizeQuality;" viewBox="0 0 287 317" x="0px" y="0px" fill-rule="evenodd" clip-rule="evenodd"><defs><style type="text/css">
   
    .fil0 {fill:#000000}
   
  </style></defs><g><path class="fil0" d="M183 89c83,-96 164,46 40,69 124,24 42,165 -40,69 42,120 -121,119 -79,0 -83,96 -164,-45 -40,-69 -125,-23 -43,-164 40,-69 -43,-119 121,-119 79,0zm-40 51c10,0 19,8 19,18 0,10 -9,19 -19,19 -10,0 -18,-9 -18,-19 0,-10 8,-18 18,-18z"/></g></svg>