<?xml version="1.0" encoding="UTF-8"?>
<svg width="179px" height="7px" viewBox="0 0 179 7" version="1.1" xmlns="http://www.w3.org/2000/svg" xmlns:xlink="http://www.w3.org/1999/xlink">
    <title>Line Copy</title>
    <g id="Site" stroke="none" stroke-width="1" fill="none" fill-rule="evenodd">
        <g id="mocks/Homepage-Alt-Pink" transform="translate(-135.000000, -761.000000)" stroke="#773344">
            <path d="M135,764.5 C137.486111,766.166667 139.972222,767 142.458333,767 C144.944444,767 147.430556,766.166667 149.916667,764.5 C152.402778,762.833333 154.888889,762 157.375,762 C159.861111,762 162.347222,762.833333 164.833333,764.5 C167.319444,766.166667 169.805556,767 172.291667,767 C174.777778,767 177.263889,766.166667 179.75,764.5 C182.236111,762.833333 184.722222,762 187.208333,762 C189.694444,762 192.180556,762.833333 194.666667,764.5 C197.152778,766.166667 199.638889,767 202.125,767 C204.611111,767 207.097222,766.166667 209.583333,764.5 C212.069444,762.833333 214.555556,762 217.041667,762 C219.527778,762 222.013889,762.833333 224.5,764.5 C226.986111,766.166667 229.472222,767 231.958333,767 C234.444444,767 236.930556,766.166667 239.416667,764.5 C241.902778,762.833333 244.388889,762 246.875,762 C249.361111,762 251.847222,762.833333 254.333333,764.5 C256.819444,766.166667 259.305556,767 261.791667,767 C264.277778,767 266.763889,766.166667 269.25,764.5 C271.736111,762.833333 274.222222,762 276.708333,762 C279.194444,762 281.680556,762.833333 284.166667,764.5 C286.652778,766.166667 289.138889,767 291.625,767 C294.111111,767 296.597222,766.166667 299.083333,764.5 C301.569444,762.833333 304.055556,762 306.541667,762 C309.027778,762 311.513889,762.833333 314,764.5" id="Line-Copy"></path>
        </g>
    </g>
</svg>